# This file uses centimeters as units for non-parametric coordinates.

mtllib Escritorio2.mtl
g default
v -135.501468 4.183099 21.695702
v -135.501468 3.428357 21.695702
v -132.689496 3.428357 21.695702
v -132.689496 4.183099 21.695702
v -132.689496 3.428357 17.440456
v -132.689496 4.183099 17.440456
v -135.501468 3.671831 17.440456
v -135.501468 3.428357 17.440456
v -135.641891 3.428357 17.440456
v -135.501468 4.183099 17.440456
v -139.475869 4.183099 21.695702
v -139.475869 3.428357 21.695702
v -139.282224 3.428357 17.440456
v -139.475869 3.428357 17.440456
v -139.475869 3.764109 17.440456
v -139.210985 2.960391 21.695702
v -135.766351 2.960391 21.695702
v -135.766351 2.960391 17.440456
v -139.119912 3.146930 20.484781
v -139.558843 3.907973 21.078434
v -135.365274 3.907973 21.078434
v -135.804204 3.146930 20.484781
v -139.475869 4.183099 17.440456
v -139.210985 2.960391 17.440456
v -135.804204 3.146930 17.440456
v -139.119912 3.146930 17.440456
v -142.339452 3.428357 21.695702
v -142.339452 4.183099 21.695702
v -135.501468 3.907973 17.440456
v -139.475869 3.907973 17.440456
v -142.339452 4.183099 17.440456
v -142.339452 3.428357 17.440456
v -135.365274 3.907973 17.440456
v -139.558843 3.907973 17.440456
vt 0.552151 0.250000
vt 0.552151 0.000000
vt 0.625000 0.000000
vt 0.625000 0.250000
vt 0.875000 0.000000
vt 0.875000 0.250000
vt 0.552151 0.669352
vt 0.552151 0.750000
vt 0.548513 0.750000
vt 0.552151 0.500000
vt 0.625000 0.500000
vt 0.552151 1.000000
vt 0.625000 0.750000
vt 0.625000 1.000000
vt 0.449186 0.250000
vt 0.449186 0.000000
vt 0.454203 0.750000
vt 0.449186 0.750000
vt 0.449186 0.638786
vt 0.449186 1.000000
vt 0.449186 1.000000
vt 0.552151 1.000000
vt 0.552151 0.750000
vt 0.375000 0.000000
vt 0.375000 0.250000
vt 0.625000 0.250000
vt 0.625000 0.000000
vt 0.449186 0.500000
vt 0.449186 0.750000
vt 0.625000 0.830285
vt 0.375000 0.830285
vt 0.375000 1.000000
vt 0.625000 1.000000
vt 0.375000 0.000000
vt 0.375000 0.250000
vt 0.552151 0.591133
vt 0.449186 0.591133
vt 0.375000 0.500000
vt 0.375000 0.750000
vt 0.375000 1.000000
vt 0.125000 0.000000
vt 0.125000 0.250000
vt 0.785354 0.250000
vt 0.788196 0.172428
vt 0.791254 0.092448
vt 0.794715 0.000000
vt 0.375000 0.410354
vt 0.379946 0.410354
vt 0.616881 0.410354
vt 0.625000 0.410354
vt 0.555679 0.591132
vt 0.205285 0.000000
vt 0.208746 0.092448
vt 0.212937 0.202741
vt 0.214646 0.250000
vt 0.447037 0.591133
vt 0.454563 0.750000
vt 0.548247 0.750000
vn 0.000000 0.000000 1.000000
vn 0.000000 0.000000 1.000000
vn 0.000000 0.000000 1.000000
vn 0.000000 0.000000 1.000000
vn 1.000000 0.000000 0.000000
vn 1.000000 0.000000 0.000000
vn 1.000000 0.000000 0.000000
vn 1.000000 0.000000 0.000000
vn 0.000000 0.000000 -1.000000
vn 0.000000 0.000000 -1.000000
vn 0.000000 0.000000 -1.000000
vn 0.000000 1.000000 0.000000
vn 0.000000 1.000000 0.000000
vn 0.000000 1.000000 0.000000
vn 0.000000 1.000000 0.000000
vn 0.000000 -1.000000 0.000000
vn 0.000000 -1.000000 0.000000
vn 0.000000 -1.000000 0.000000
vn 0.000000 -1.000000 0.000000
vn 0.000000 0.000000 1.000000
vn 0.000000 0.000000 1.000000
vn 0.000000 0.000000 -1.000000
vn 0.000000 0.000000 -1.000000
vn 0.000000 0.000000 -1.000000
vn 0.000000 0.000000 1.000000
vn 0.000000 0.000000 1.000000
vn 0.870258 -0.492597 0.000000
vn 0.870258 -0.492597 0.000000
vn 0.870258 -0.492597 0.000000
vn 0.870258 -0.492597 0.000000
vn 0.000000 0.615056 -0.788483
vn 0.000000 0.615056 -0.788483
vn 0.000000 0.615056 -0.788483
vn 0.000000 0.615056 -0.788483
vn 0.000000 1.000000 0.000000
vn 0.000000 1.000000 0.000000
vn 0.000000 -1.000000 0.000000
vn 0.000000 -1.000000 0.000000
vn 0.000000 -1.000000 0.000000
vn 0.000000 -1.000000 0.000000
vn 0.000000 1.000000 0.000000
vn 0.000000 1.000000 0.000000
vn 0.000000 1.000000 0.000000
vn 0.000000 1.000000 0.000000
vn 0.000000 0.000000 1.000000
vn 0.000000 0.000000 1.000000
vn 0.000000 0.000000 -1.000000
vn 0.000000 0.000000 -1.000000
vn 0.000000 0.000000 -1.000000
vn 0.000000 0.000000 -1.000000
vn -0.870258 -0.492597 0.000000
vn -0.870258 -0.492597 0.000000
vn -0.870258 -0.492597 0.000000
vn -0.870258 -0.492597 0.000000
vn 0.000000 1.000000 0.000000
vn 0.000000 1.000000 0.000000
vn 0.000000 -1.000000 0.000000
vn 0.000000 -1.000000 0.000000
vn 0.000000 -1.000000 0.000000
vn 0.000000 -1.000000 0.000000
vn -1.000000 0.000000 0.000000
vn -1.000000 0.000000 0.000000
vn -1.000000 0.000000 0.000000
vn -1.000000 0.000000 0.000000
vn -0.866252 0.499608 -0.000000
vn -0.866252 0.499608 -0.000000
vn -0.866252 0.499608 -0.000000
vn -0.866252 0.499608 -0.000000
vn -0.866252 0.499608 -0.000000
vn -0.866252 0.499608 -0.000000
vn 0.000000 -1.000000 0.000000
vn 0.000000 -1.000000 0.000000
vn 0.000000 -1.000000 0.000000
vn 0.000000 -1.000000 0.000000
vn 0.000000 -1.000000 0.000000
vn 0.000000 -1.000000 0.000000
vn 0.000000 0.000000 -1.000000
vn 0.000000 0.000000 -1.000000
vn 0.000000 0.000000 -1.000000
vn 0.866251 0.499610 0.000000
vn 0.866251 0.499610 0.000000
vn 0.866251 0.499610 0.000000
vn 0.866251 0.499610 0.000000
vn 0.866251 0.499610 0.000000
vn 0.866251 0.499610 0.000000
vn 0.000000 0.000000 -1.000000
vn 0.000000 0.000000 -1.000000
vn 0.000000 0.000000 -1.000000
vn 0.000000 0.000000 -1.000000
vn 0.000000 0.000000 -1.000000
vn 0.000000 0.000000 -1.000000
vn 0.000000 0.000000 -1.000000
s 1
g pCube522
usemtl initialShadingGroup
f 1/1/1 2/2/2 3/3/3 4/4/4
s off
f 3/3/5 5/5/6 6/6/7 4/4/8
s 2
f 7/7/9 8/8/10 9/9/11
s 3
f 10/10/12 1/1/13 4/4/14 6/11/15
s off
f 2/12/16 8/8/17 5/13/18 3/14/19
s 1
f 11/15/20 12/16/21 2/2/2 1/1/1
s 2
f 13/17/22 14/18/23 15/19/24
s 1
f 2/12/2 12/20/21 16/21/25 17/22/26
s off
f 8/8/27 2/12/28 17/22/29 18/23/30
f 19/24/31 20/25/32 21/26/33 22/27/34
s 3
f 23/28/35 11/15/36 1/1/13 10/10/12
s off
f 16/21/37 24/29/38 18/23/39 17/22/40
f 25/30/41 26/31/42 19/32/43 22/33/44
s 1
f 27/34/45 12/16/21 11/15/20 28/35/46
s 2
f 23/28/47 10/10/48 29/36/49 30/37/50
s off
f 12/20/51 14/18/52 24/29/53 16/21/54
s 3
f 28/35/55 11/15/36 23/28/35 31/38/56
s off
f 32/39/57 14/18/58 12/20/59 27/40/60
f 32/41/61 27/34/62 28/35/63 31/42/64
f 22/27/65 21/26/66 33/43/67 7/44/68 9/45/69 25/46/70
f 20/25/71 34/47/72 30/48/73 29/49/74 33/50/75 21/26/76
s 2
f 10/10/48 6/11/77 5/13/78 8/8/10 7/7/9 33/51/79 29/36/49
s off
f 26/52/80 13/53/81 15/54/82 34/55/83 20/25/84 19/24/85
s 2
f 31/38/86 23/28/47 30/37/50 34/56/87 15/19/24 14/18/23 32/39/88
f 14/18/23 13/17/22 26/57/89 25/58/90 9/9/11 8/8/10 18/23/91 24/29/92
g default
v -141.622143 -0.012653 17.440459
v -142.339454 -0.012653 17.440459
v -141.143447 3.433276 17.440459
v -142.339454 3.433276 17.440459
v -141.143447 3.433276 21.695705
v -142.339454 3.433276 21.695705
v -141.622143 -0.012653 21.695705
v -142.339454 -0.012653 21.695705
vt 0.375000 0.000000
vt 0.625000 0.000000
vt 0.375000 0.250000
vt 0.625000 0.250000
vt 0.375000 0.500000
vt 0.625000 0.500000
vt 0.375000 0.750000
vt 0.625000 0.750000
vt 0.375000 1.000000
vt 0.625000 1.000000
vt 0.875000 0.000000
vt 0.875000 0.250000
vt 0.125000 0.000000
vt 0.125000 0.250000
vn 0.000000 0.000000 -1.000000
vn 0.000000 0.000000 -1.000000
vn 0.000000 0.000000 -1.000000
vn 0.000000 0.000000 -1.000000
vn 0.000000 1.000000 -0.000000
vn 0.000000 1.000000 -0.000000
vn 0.000000 1.000000 -0.000000
vn 0.000000 1.000000 -0.000000
vn -0.000000 0.000000 1.000000
vn -0.000000 0.000000 1.000000
vn -0.000000 0.000000 1.000000
vn -0.000000 0.000000 1.000000
vn 0.000000 -1.000000 0.000000
vn 0.000000 -1.000000 0.000000
vn 0.000000 -1.000000 0.000000
vn 0.000000 -1.000000 0.000000
vn -1.000000 0.000000 -0.000000
vn -1.000000 0.000000 -0.000000
vn -1.000000 0.000000 -0.000000
vn -1.000000 0.000000 -0.000000
vn 0.990488 -0.137595 0.000000
vn 0.990488 -0.137595 0.000000
vn 0.990488 -0.137595 0.000000
vn 0.990488 -0.137595 0.000000
s off
g pCube521
usemtl initialShadingGroup
f 35/59/93 36/60/94 38/62/95 37/61/96
f 37/61/97 38/62/98 40/64/99 39/63/100
f 39/63/101 40/64/102 42/66/103 41/65/104
f 41/65/105 42/66/106 36/68/107 35/67/108
f 36/60/109 42/69/110 40/70/111 38/62/112
f 41/71/113 35/59/114 37/61/115 39/72/116
g default
v -133.406808 -0.012653 21.695705
v -132.689497 -0.012653 21.695705
v -133.885504 3.433276 21.695705
v -132.689497 3.433276 21.695705
v -133.885504 3.433276 17.440459
v -132.689497 3.433276 17.440459
v -133.406808 -0.012653 17.440459
v -132.689497 -0.012653 17.440459
vt 0.375000 0.000000
vt 0.625000 0.000000
vt 0.375000 0.250000
vt 0.625000 0.250000
vt 0.375000 0.500000
vt 0.625000 0.500000
vt 0.375000 0.750000
vt 0.625000 0.750000
vt 0.375000 1.000000
vt 0.625000 1.000000
vt 0.875000 0.000000
vt 0.875000 0.250000
vt 0.125000 0.000000
vt 0.125000 0.250000
vn 0.000000 0.000000 1.000000
vn 0.000000 0.000000 1.000000
vn 0.000000 0.000000 1.000000
vn 0.000000 0.000000 1.000000
vn 0.000000 1.000000 0.000000
vn 0.000000 1.000000 0.000000
vn 0.000000 1.000000 0.000000
vn 0.000000 1.000000 0.000000
vn 0.000000 0.000000 -1.000000
vn 0.000000 0.000000 -1.000000
vn 0.000000 0.000000 -1.000000
vn 0.000000 0.000000 -1.000000
vn 0.000000 -1.000000 0.000000
vn 0.000000 -1.000000 0.000000
vn 0.000000 -1.000000 0.000000
vn 0.000000 -1.000000 0.000000
vn 1.000000 0.000000 0.000000
vn 1.000000 0.000000 0.000000
vn 1.000000 0.000000 0.000000
vn 1.000000 0.000000 0.000000
vn -0.990488 -0.137595 0.000000
vn -0.990488 -0.137595 0.000000
vn -0.990488 -0.137595 0.000000
vn -0.990488 -0.137595 0.000000
s off
g pCube523
usemtl initialShadingGroup
f 43/73/117 44/74/118 46/76/119 45/75/120
f 45/75/121 46/76/122 48/78/123 47/77/124
f 47/77/125 48/78/126 50/80/127 49/79/128
f 49/79/129 50/80/130 44/82/131 43/81/132
f 44/74/133 50/83/134 48/84/135 46/76/136
f 49/85/137 43/73/138 45/75/139 47/86/140
