# This file uses centimeters as units for non-parametric coordinates.

mtllib Tienda Chica.mtl
g default
v -1.000000 -0.025000 0.004887
v 1.000000 -0.025000 0.004887
v -1.000000 0.025000 0.004887
v 1.000000 0.025000 0.004887
v -1.000000 0.025000 -2.995113
v 1.000000 0.025000 -2.995113
v -1.000000 -0.025000 -2.995113
v 1.000000 -0.025000 -2.995113
vt 0.375000 0.000000
vt 0.625000 0.000000
vt 0.375000 0.250000
vt 0.625000 0.250000
vt 0.375000 0.500000
vt 0.625000 0.500000
vt 0.375000 0.750000
vt 0.625000 0.750000
vt 0.375000 1.000000
vt 0.625000 1.000000
vt 0.875000 0.000000
vt 0.875000 0.250000
vt 0.125000 0.000000
vt 0.125000 0.250000
vn 0.000000 0.000000 1.000000
vn 0.000000 0.000000 1.000000
vn 0.000000 0.000000 1.000000
vn 0.000000 0.000000 1.000000
vn 0.000000 1.000000 0.000000
vn 0.000000 1.000000 0.000000
vn 0.000000 1.000000 0.000000
vn 0.000000 1.000000 0.000000
vn 0.000000 0.000000 -1.000000
vn 0.000000 0.000000 -1.000000
vn 0.000000 0.000000 -1.000000
vn 0.000000 0.000000 -1.000000
vn 0.000000 -1.000000 0.000000
vn 0.000000 -1.000000 0.000000
vn 0.000000 -1.000000 0.000000
vn 0.000000 -1.000000 0.000000
vn 1.000000 0.000000 0.000000
vn 1.000000 0.000000 0.000000
vn 1.000000 0.000000 0.000000
vn 1.000000 0.000000 0.000000
vn -1.000000 0.000000 0.000000
vn -1.000000 0.000000 0.000000
vn -1.000000 0.000000 0.000000
vn -1.000000 0.000000 0.000000
s off
g pCube65
usemtl initialShadingGroup
f 1/1/1 2/2/2 4/4/3 3/3/4
f 3/3/5 4/4/6 6/6/7 5/5/8
f 5/5/9 6/6/10 8/8/11 7/7/12
f 7/7/13 8/8/14 2/10/15 1/9/16
f 2/2/17 8/11/18 6/12/19 4/4/20
f 7/13/21 1/1/22 3/3/23 5/14/24
g default
v -0.465959 1.358215 -2.454156
v -0.465959 1.331677 -2.543603
v -0.465959 1.290344 -2.614589
v -0.465959 1.238260 -2.660165
v -0.465959 1.180526 -2.675869
v -0.465959 1.122791 -2.660165
v -0.465959 1.070708 -2.614589
v -0.465959 1.029374 -2.543603
v -0.465959 1.002836 -2.454156
v -0.465959 0.993692 -2.355003
v -0.465959 1.002836 -2.255850
v -0.465959 1.029374 -2.166403
v -0.465959 1.070708 -2.095417
v -0.465959 1.122791 -2.049842
v -0.465959 1.180526 -2.034137
v -0.465959 1.238260 -2.049842
v -0.465959 1.290344 -2.095417
v -0.465959 1.331677 -2.166403
v -0.465959 1.358215 -2.255850
v -0.465959 1.367359 -2.355003
v -0.513131 1.358215 -2.454156
v -0.513131 1.331677 -2.543603
v -0.513131 1.290344 -2.614589
v -0.513131 1.238260 -2.660165
v -0.513131 1.180526 -2.675869
v -0.513131 1.122791 -2.660165
v -0.513131 1.070708 -2.614589
v -0.513131 1.029374 -2.543603
v -0.513131 1.002836 -2.454156
v -0.513131 0.993692 -2.355003
v -0.513131 1.002836 -2.255850
v -0.513131 1.029374 -2.166403
v -0.513131 1.070708 -2.095417
v -0.513131 1.122791 -2.049842
v -0.513131 1.180526 -2.034137
v -0.513131 1.238260 -2.049842
v -0.513131 1.290344 -2.095417
v -0.513131 1.331677 -2.166403
v -0.513131 1.358215 -2.255850
v -0.513131 1.367359 -2.355003
v -0.465959 1.180526 -2.355003
v -0.513131 1.180526 -2.355003
vt 0.648603 0.107966
vt 0.626409 0.064408
vt 0.591842 0.029841
vt 0.548284 0.007647
vt 0.500000 -0.000000
vt 0.451716 0.007647
vt 0.408159 0.029841
vt 0.373591 0.064409
vt 0.351397 0.107966
vt 0.343750 0.156250
vt 0.351397 0.204534
vt 0.373591 0.248091
vt 0.408159 0.282659
vt 0.451716 0.304853
vt 0.500000 0.312500
vt 0.548284 0.304853
vt 0.591841 0.282659
vt 0.626409 0.248091
vt 0.648603 0.204534
vt 0.656250 0.156250
vt 0.375000 0.312500
vt 0.387500 0.312500
vt 0.400000 0.312500
vt 0.412500 0.312500
vt 0.425000 0.312500
vt 0.437500 0.312500
vt 0.450000 0.312500
vt 0.462500 0.312500
vt 0.475000 0.312500
vt 0.487500 0.312500
vt 0.500000 0.312500
vt 0.512500 0.312500
vt 0.525000 0.312500
vt 0.537500 0.312500
vt 0.550000 0.312500
vt 0.562500 0.312500
vt 0.575000 0.312500
vt 0.587500 0.312500
vt 0.600000 0.312500
vt 0.612500 0.312500
vt 0.625000 0.312500
vt 0.375000 0.688440
vt 0.387500 0.688440
vt 0.400000 0.688440
vt 0.412500 0.688440
vt 0.425000 0.688440
vt 0.437500 0.688440
vt 0.450000 0.688440
vt 0.462500 0.688440
vt 0.475000 0.688440
vt 0.487500 0.688440
vt 0.500000 0.688440
vt 0.512500 0.688440
vt 0.525000 0.688440
vt 0.537500 0.688440
vt 0.550000 0.688440
vt 0.562500 0.688440
vt 0.575000 0.688440
vt 0.587500 0.688440
vt 0.600000 0.688440
vt 0.612500 0.688440
vt 0.625000 0.688440
vt 0.648603 0.795466
vt 0.626409 0.751908
vt 0.591842 0.717341
vt 0.548284 0.695147
vt 0.500000 0.687500
vt 0.451716 0.695147
vt 0.408159 0.717341
vt 0.373591 0.751909
vt 0.351397 0.795466
vt 0.343750 0.843750
vt 0.351397 0.892034
vt 0.373591 0.935591
vt 0.408159 0.970159
vt 0.451716 0.992353
vt 0.500000 1.000000
vt 0.548284 0.992353
vt 0.591841 0.970159
vt 0.626409 0.935591
vt 0.648603 0.892034
vt 0.656250 0.843750
vt 0.500000 0.150000
vt 0.500000 0.837500
vn 0.000000 0.982569 -0.185896
vn 0.000000 0.920976 -0.389620
vn 0.000000 0.920976 -0.389620
vn 0.000000 0.982569 -0.185896
vn 0.000000 0.780321 -0.625380
vn 0.000000 0.780321 -0.625380
vn 0.000000 0.487282 -0.873245
vn 0.000000 0.487282 -0.873245
vn -0.000000 -0.000000 -1.000000
vn -0.000000 -0.000000 -1.000000
vn -0.000000 -0.487282 -0.873245
vn -0.000000 -0.487282 -0.873245
vn -0.000000 -0.780321 -0.625379
vn -0.000000 -0.780321 -0.625379
vn -0.000000 -0.920976 -0.389619
vn -0.000000 -0.920976 -0.389619
vn -0.000000 -0.982569 -0.185896
vn -0.000000 -0.982569 -0.185896
vn -0.000000 -1.000000 0.000000
vn -0.000000 -1.000000 0.000000
vn -0.000000 -0.982569 0.185896
vn -0.000000 -0.982569 0.185896
vn -0.000000 -0.920976 0.389620
vn -0.000000 -0.920976 0.389620
vn -0.000000 -0.780321 0.625379
vn -0.000000 -0.780321 0.625379
vn -0.000000 -0.487282 0.873245
vn -0.000000 -0.487282 0.873245
vn 0.000000 0.000000 1.000000
vn 0.000000 0.000000 1.000000
vn 0.000000 0.487282 0.873245
vn 0.000000 0.487282 0.873245
vn 0.000000 0.780321 0.625379
vn 0.000000 0.780321 0.625379
vn 0.000000 0.920976 0.389620
vn 0.000000 0.920976 0.389620
vn 0.000000 0.982569 0.185896
vn 0.000000 0.982569 0.185896
vn 0.000000 1.000000 0.000001
vn 0.000000 1.000000 0.000001
vn 1.000000 -0.000000 0.000000
vn 1.000000 -0.000000 0.000000
vn 1.000000 -0.000000 0.000000
vn 1.000000 -0.000000 0.000000
vn 1.000000 -0.000000 0.000000
vn 1.000000 -0.000000 0.000000
vn 1.000000 -0.000000 0.000000
vn 1.000000 -0.000000 0.000000
vn 1.000000 -0.000000 0.000000
vn 1.000000 -0.000000 0.000000
vn 1.000000 -0.000000 0.000000
vn 1.000000 -0.000000 0.000000
vn 1.000000 -0.000000 0.000000
vn 1.000000 -0.000000 0.000000
vn 1.000000 -0.000000 0.000000
vn 1.000000 -0.000000 0.000000
vn 1.000000 -0.000000 0.000000
vn 1.000000 -0.000000 0.000000
vn 1.000000 -0.000000 0.000000
vn 1.000000 -0.000000 0.000000
vn 1.000000 -0.000000 0.000000
vn -1.000000 0.000000 0.000000
vn -1.000000 0.000000 0.000000
vn -1.000000 0.000000 0.000000
vn -1.000000 0.000000 0.000000
vn -1.000000 0.000000 0.000000
vn -1.000000 0.000000 0.000000
vn -1.000000 0.000000 0.000000
vn -1.000000 0.000000 0.000000
vn -1.000000 0.000000 0.000000
vn -1.000000 0.000000 0.000000
vn -1.000000 0.000000 0.000000
vn -1.000000 0.000000 0.000000
vn -1.000000 0.000000 0.000000
vn -1.000000 0.000000 0.000000
vn -1.000000 0.000000 0.000000
vn -1.000000 0.000000 0.000000
vn -1.000000 0.000000 0.000000
vn -1.000000 0.000000 0.000000
vn -1.000000 0.000000 0.000000
vn -1.000000 0.000000 0.000000
vn -1.000000 0.000000 0.000000
s 1
g pCylinder8
usemtl initialShadingGroup
f 9/35/25 10/36/26 30/57/27 29/56/28
f 10/36/26 11/37/29 31/58/30 30/57/27
f 11/37/29 12/38/31 32/59/32 31/58/30
f 12/38/31 13/39/33 33/60/34 32/59/32
f 13/39/33 14/40/35 34/61/36 33/60/34
f 14/40/35 15/41/37 35/62/38 34/61/36
f 15/41/37 16/42/39 36/63/40 35/62/38
f 16/42/39 17/43/41 37/64/42 36/63/40
f 17/43/41 18/44/43 38/65/44 37/64/42
f 18/44/43 19/45/45 39/66/46 38/65/44
f 19/45/45 20/46/47 40/67/48 39/66/46
f 20/46/47 21/47/49 41/68/50 40/67/48
f 21/47/49 22/48/51 42/69/52 41/68/50
f 22/48/51 23/49/53 43/70/54 42/69/52
f 23/49/53 24/50/55 44/71/56 43/70/54
f 24/50/55 25/51/57 45/72/58 44/71/56
f 25/51/57 26/52/59 46/73/60 45/72/58
f 26/52/59 27/53/61 47/74/62 46/73/60
f 27/53/61 28/54/63 48/75/64 47/74/62
f 28/54/63 9/55/25 29/76/28 48/75/64
s 2
f 10/16/65 9/15/66 49/97/67
f 11/17/68 10/16/65 49/97/67
f 12/18/69 11/17/68 49/97/67
f 13/19/70 12/18/69 49/97/67
f 14/20/71 13/19/70 49/97/67
f 15/21/72 14/20/71 49/97/67
f 16/22/73 15/21/72 49/97/67
f 17/23/74 16/22/73 49/97/67
f 18/24/75 17/23/74 49/97/67
f 19/25/76 18/24/75 49/97/67
f 20/26/77 19/25/76 49/97/67
f 21/27/78 20/26/77 49/97/67
f 22/28/79 21/27/78 49/97/67
f 23/29/80 22/28/79 49/97/67
f 24/30/81 23/29/80 49/97/67
f 25/31/82 24/30/81 49/97/67
f 26/32/83 25/31/82 49/97/67
f 27/33/84 26/32/83 49/97/67
f 28/34/85 27/33/84 49/97/67
f 9/15/66 28/34/85 49/97/67
s 3
f 29/95/86 30/94/87 50/98/88
f 30/94/87 31/93/89 50/98/88
f 31/93/89 32/92/90 50/98/88
f 32/92/90 33/91/91 50/98/88
f 33/91/91 34/90/92 50/98/88
f 34/90/92 35/89/93 50/98/88
f 35/89/93 36/88/94 50/98/88
f 36/88/94 37/87/95 50/98/88
f 37/87/95 38/86/96 50/98/88
f 38/86/96 39/85/97 50/98/88
f 39/85/97 40/84/98 50/98/88
f 40/84/98 41/83/99 50/98/88
f 41/83/99 42/82/100 50/98/88
f 42/82/100 43/81/101 50/98/88
f 43/81/101 44/80/102 50/98/88
f 44/80/102 45/79/103 50/98/88
f 45/79/103 46/78/104 50/98/88
f 46/78/104 47/77/105 50/98/88
f 47/77/105 48/96/106 50/98/88
f 48/96/106 29/95/86 50/98/88
g default
v -0.420095 0.001744 0.004887
v -0.420095 1.501745 0.004887
v -0.470095 1.501745 0.004887
v -0.470095 0.001744 0.004887
v -0.420095 0.001744 -2.995113
v -0.470095 0.001744 -2.995113
v -0.420095 0.043442 -2.605071
v -0.420095 0.043442 -2.110359
v -0.420095 0.250765 -1.775913
v -0.420095 0.250765 -0.314486
v -0.420095 1.026389 -0.314486
v -0.420095 1.026389 -1.775913
v -0.420095 0.914149 -2.110359
v -0.420095 1.501745 -2.995113
v -0.470095 1.501745 -2.995113
v -0.470095 0.043442 -2.605071
v -0.470095 0.914149 -2.605071
v -0.470095 0.914149 -2.110359
v -0.470095 0.769887 -1.775913
v -0.470095 1.026389 -1.775913
v -0.470095 1.026389 -0.314486
v -0.470095 0.250765 -0.314486
v -0.470095 0.250765 -0.572423
v -0.470095 0.250765 -1.775913
v -0.470095 0.043442 -2.110359
v -0.420095 0.914149 -2.605071
vt 0.375000 0.000000
vt 0.625000 0.000000
vt 0.625000 0.250000
vt 0.375000 0.250000
vt 0.125000 0.000000
vt 0.125000 0.250000
vt 0.375000 0.750000
vt 0.381950 0.782503
vt 0.381950 0.823729
vt 0.416503 0.851600
vt 0.416503 0.973386
vt 0.545774 0.973386
vt 0.545774 0.851600
vt 0.625000 1.000000
vt 0.375000 1.000000
vt 0.527067 0.823729
vt 0.625000 0.750000
vt 0.875000 0.000000
vt 0.875000 0.250000
vt 0.625000 0.500000
vt 0.375000 0.500000
vt 0.381950 0.467496
vt 0.527067 0.467497
vt 0.527067 0.426271
vt 0.503024 0.398400
vt 0.545774 0.398400
vt 0.545774 0.276614
vt 0.416503 0.276614
vt 0.416503 0.298109
vt 0.416503 0.398400
vt 0.381950 0.426271
vt 0.527067 0.782503
vt 0.375000 0.097963
vt 0.125000 0.097963
vt 0.125000 0.152037
vt 0.375000 0.152037
vt 0.625000 0.097963
vt 0.625000 0.152037
vt 0.625000 0.597963
vt 0.375000 0.597963
vt 0.375000 0.652037
vt 0.625000 0.652037
vt 0.875000 0.097963
vt 0.875000 0.152037
vt 0.625000 0.104916
vt 0.375000 0.104916
vt 0.375000 0.145084
vt 0.625000 0.145084
vt 0.875000 0.104916
vt 0.875000 0.145084
vt 0.125000 0.104916
vt 0.125000 0.145084
vt 0.330876 0.145084
vt 0.625000 0.604916
vt 0.542324 0.604916
vt 0.375000 0.604916
vt 0.375000 0.645084
vt 0.625000 0.645084
vn 0.000000 0.000000 1.000000
vn 0.000000 0.000000 1.000000
vn 0.000000 0.000000 1.000000
vn 0.000000 0.000000 1.000000
vn 0.000000 -1.000000 0.000000
vn 0.000000 -1.000000 0.000000
vn 0.000000 -1.000000 0.000000
vn 0.000000 -1.000000 0.000000
vn 1.000000 0.000000 0.000000
vn 1.000000 0.000000 0.000000
vn 1.000000 0.000000 0.000000
vn 1.000000 0.000000 0.000000
vn 1.000000 0.000000 0.000000
vn 1.000000 0.000000 0.000000
vn 1.000000 -0.000000 0.000000
vn 1.000000 0.000000 0.000000
vn 1.000000 0.000000 0.000000
vn 1.000000 -0.000000 0.000000
vn 1.000000 -0.000000 0.000000
vn 0.000000 1.000000 0.000000
vn 0.000000 1.000000 0.000000
vn 0.000000 1.000000 0.000000
vn 0.000000 1.000000 0.000000
vn -1.000000 -0.000000 0.000000
vn -1.000000 -0.000000 0.000000
vn -1.000000 -0.000000 0.000000
vn -1.000000 -0.000000 0.000000
vn -1.000000 -0.000000 0.000000
vn -1.000000 -0.000000 0.000000
vn -1.000000 -0.000000 0.000000
vn -1.000000 -0.000000 0.000000
vn -1.000000 -0.000000 0.000000
vn -1.000000 -0.000000 0.000000
vn -1.000000 -0.000000 0.000000
vn -1.000000 -0.000000 0.000000
vn 0.000000 0.000000 -1.000000
vn 0.000000 0.000000 -1.000000
vn 0.000000 0.000000 -1.000000
vn 0.000000 0.000000 -1.000000
vn -1.000000 0.000000 0.000000
vn -1.000000 0.000000 0.000000
vn 1.000000 0.000000 0.000000
vn 0.000000 1.000000 0.000000
vn 0.000000 1.000000 0.000000
vn 0.000000 1.000000 0.000000
vn 0.000000 1.000000 0.000000
vn 0.000000 0.000000 -1.000000
vn 0.000000 0.000000 -1.000000
vn 0.000000 0.000000 -1.000000
vn 0.000000 0.000000 -1.000000
vn 0.000000 0.000000 1.000000
vn 0.000000 0.000000 1.000000
vn 0.000000 0.000000 1.000000
vn 0.000000 0.000000 1.000000
vn 0.000000 -1.000000 0.000000
vn 0.000000 -1.000000 0.000000
vn 0.000000 -1.000000 0.000000
vn 0.000000 -1.000000 0.000000
vn 0.000000 0.000000 -1.000000
vn 0.000000 0.000000 -1.000000
vn 0.000000 0.000000 -1.000000
vn 0.000000 0.000000 -1.000000
vn 0.000000 -1.000000 0.000000
vn 0.000000 -1.000000 0.000000
vn 0.000000 -1.000000 0.000000
vn 0.000000 -1.000000 0.000000
vn 0.000000 1.000000 0.000000
vn 0.000000 1.000000 0.000000
vn 0.000000 1.000000 0.000000
vn 0.000000 1.000000 0.000000
vn 0.000000 1.000000 0.000000
vn 0.000000 0.000000 1.000000
vn 0.000000 0.000000 1.000000
vn 0.000000 0.000000 1.000000
vn 0.000000 0.000000 1.000000
vn 0.000000 0.000000 1.000000
s off
g pCube75
usemtl initialShadingGroup
f 51/99/107 52/100/108 53/101/109 54/102/110
f 55/103/111 51/99/112 54/102/113 56/104/114
s 1
f 55/105/115 57/106/116 58/107/117 59/108/118 60/109/119 61/110/120 62/111/121 52/112/122 51/113/123
f 62/111/121 59/108/118 58/107/117 63/114/124 64/115/125 52/112/122
s off
f 52/100/126 64/116/127 65/117/128 53/101/129
s 2
f 54/102/130 53/101/131 65/118/132 56/119/133 66/120/134 67/121/135 68/122/136 69/123/137 70/124/138 71/125/139 72/126/140 73/127/141
s off
f 56/119/142 65/118/143 64/115/144 55/105/145
s 2
f 54/102/130 73/127/141 74/128/146 69/123/137 68/122/136 75/129/147 66/120/134 56/119/133
s 1
f 63/114/124 76/130/148 57/106/116 55/105/115 64/115/125
s off
f 58/131/149 57/132/150 66/133/151 75/134/152
f 63/135/153 58/131/154 75/134/155 68/136/156
f 67/137/157 66/138/158 57/139/159 76/140/160
f 76/141/161 63/135/162 68/136/163 67/142/164
f 61/143/165 60/144/166 72/145/167 71/146/168
f 62/147/169 61/143/170 71/146/171 70/148/172
f 60/144/173 59/149/174 74/150/175 73/151/176 72/145/177
f 70/152/178 69/153/179 74/154/180 59/155/181 62/156/182
g default
v -0.478336 1.452253 0.004887
v 1.000000 1.452253 0.004887
v -0.478336 1.502253 0.004887
v 1.000000 1.934599 0.004887
v -0.478336 1.502253 -2.995113
v 1.000000 1.934599 -2.995113
v -0.478336 1.452253 -2.995113
v 1.000000 1.452253 -2.995113
vt 0.375000 0.000000
vt 0.625000 0.000000
vt 0.375000 0.250000
vt 0.625000 0.250000
vt 0.375000 0.500000
vt 0.625000 0.500000
vt 0.375000 0.750000
vt 0.625000 0.750000
vt 0.375000 1.000000
vt 0.625000 1.000000
vt 0.875000 0.000000
vt 0.875000 0.250000
vt 0.125000 0.000000
vt 0.125000 0.250000
vn -0.000000 0.000000 1.000000
vn -0.000000 0.000000 1.000000
vn -0.000000 0.000000 1.000000
vn -0.000000 0.000000 1.000000
vn -0.280697 0.959797 0.000000
vn -0.280697 0.959797 0.000000
vn -0.280697 0.959797 0.000000
vn -0.280697 0.959797 0.000000
vn -0.000000 0.000000 -1.000000
vn -0.000000 0.000000 -1.000000
vn -0.000000 0.000000 -1.000000
vn -0.000000 0.000000 -1.000000
vn 0.000000 -1.000000 0.000000
vn 0.000000 -1.000000 0.000000
vn 0.000000 -1.000000 0.000000
vn 0.000000 -1.000000 0.000000
vn 1.000000 0.000000 0.000000
vn 1.000000 0.000000 0.000000
vn 1.000000 0.000000 0.000000
vn 1.000000 0.000000 0.000000
vn -1.000000 0.000000 0.000000
vn -1.000000 0.000000 0.000000
vn -1.000000 0.000000 0.000000
vn -1.000000 0.000000 0.000000
s off
g pCube76
usemtl initialShadingGroup
f 77/157/183 78/158/184 80/160/185 79/159/186
f 79/159/187 80/160/188 82/162/189 81/161/190
f 81/161/191 82/162/192 84/164/193 83/163/194
f 83/163/195 84/164/196 78/166/197 77/165/198
f 78/158/199 84/167/200 82/168/201 80/160/202
f 83/169/203 77/157/204 79/159/205 81/170/206
g default
v -1.200749 0.968438 -0.315777
v -0.451554 1.070666 -0.315777
v -1.213690 1.016735 -0.315777
v -0.464495 1.217481 -0.315777
v -1.213690 1.016735 -1.777204
v -0.464495 1.217481 -1.777204
v -1.200749 0.968438 -1.777204
v -0.451554 1.070666 -1.777204
vt 0.375000 0.000000
vt 0.625000 0.000000
vt 0.375000 0.250000
vt 0.625000 0.250000
vt 0.375000 0.500000
vt 0.625000 0.500000
vt 0.375000 0.750000
vt 0.625000 0.750000
vt 0.375000 1.000000
vt 0.625000 1.000000
vt 0.875000 0.000000
vt 0.875000 0.250000
vt 0.125000 0.000000
vt 0.125000 0.250000
vn 0.000000 0.000000 1.000000
vn 0.000000 0.000000 1.000000
vn 0.000000 0.000000 1.000000
vn 0.000000 0.000000 1.000000
vn -0.258819 0.965926 0.000000
vn -0.258819 0.965926 0.000000
vn -0.258819 0.965926 0.000000
vn -0.258819 0.965926 0.000000
vn 0.000000 0.000000 -1.000000
vn 0.000000 0.000000 -1.000000
vn 0.000000 0.000000 -1.000000
vn 0.000000 0.000000 -1.000000
vn 0.135197 -0.990819 0.000000
vn 0.135197 -0.990819 0.000000
vn 0.135197 -0.990819 0.000000
vn 0.135197 -0.990819 0.000000
vn 0.996138 0.087804 0.000000
vn 0.996138 0.087804 0.000000
vn 0.996138 0.087804 0.000000
vn 0.996138 0.087804 0.000000
vn -0.965926 -0.258819 0.000000
vn -0.965926 -0.258819 0.000000
vn -0.965926 -0.258819 0.000000
vn -0.965926 -0.258819 0.000000
s off
g pCube77
usemtl initialShadingGroup
f 85/171/207 86/172/208 88/174/209 87/173/210
f 87/173/211 88/174/212 90/176/213 89/175/214
f 89/175/215 90/176/216 92/178/217 91/177/218
f 91/177/219 92/178/220 86/180/221 85/179/222
f 86/172/223 92/181/224 90/182/225 88/174/226
f 91/183/227 85/171/228 87/173/229 89/184/230
g default
v 0.991760 0.001744 -2.997656
v 0.991760 1.501744 -2.997656
v 0.991760 0.001744 -2.947656
v 0.991760 1.501744 -2.947656
v -0.470095 0.001744 -2.947656
v -0.470095 1.501744 -2.947656
v -0.470095 0.001744 -2.997656
v -0.470095 1.501744 -2.997656
vt 0.375000 0.000000
vt 0.625000 0.000000
vt 0.375000 0.250000
vt 0.625000 0.250000
vt 0.375000 0.500000
vt 0.625000 0.500000
vt 0.375000 0.750000
vt 0.625000 0.750000
vt 0.375000 1.000000
vt 0.625000 1.000000
vt 0.875000 0.000000
vt 0.875000 0.250000
vt 0.125000 0.000000
vt 0.125000 0.250000
vn 1.000000 -0.000000 0.000000
vn 1.000000 -0.000000 0.000000
vn 1.000000 -0.000000 0.000000
vn 1.000000 -0.000000 0.000000
vn -0.000000 -0.000000 1.000000
vn -0.000000 -0.000000 1.000000
vn -0.000000 -0.000000 1.000000
vn -0.000000 -0.000000 1.000000
vn -1.000000 0.000000 -0.000000
vn -1.000000 0.000000 -0.000000
vn -1.000000 0.000000 -0.000000
vn -1.000000 0.000000 -0.000000
vn 0.000000 0.000000 -1.000000
vn 0.000000 0.000000 -1.000000
vn 0.000000 0.000000 -1.000000
vn 0.000000 0.000000 -1.000000
vn 0.000000 1.000000 0.000000
vn 0.000000 1.000000 0.000000
vn 0.000000 1.000000 0.000000
vn 0.000000 1.000000 0.000000
vn -0.000000 -1.000000 -0.000000
vn -0.000000 -1.000000 -0.000000
vn -0.000000 -1.000000 -0.000000
vn -0.000000 -1.000000 -0.000000
s off
g pCube68
usemtl initialShadingGroup
f 93/185/231 94/186/232 96/188/233 95/187/234
f 95/187/235 96/188/236 98/190/237 97/189/238
f 97/189/239 98/190/240 100/192/241 99/191/242
f 99/191/243 100/192/244 94/194/245 93/193/246
f 94/186/247 100/195/248 98/196/249 96/188/250
f 99/197/251 93/185/252 95/187/253 97/198/254
g default
v 0.991760 0.001744 -0.046139
v 0.991760 1.501744 -0.046139
v 0.991760 0.001744 0.003861
v 0.991760 1.501744 0.003861
v -0.470095 0.001744 0.003861
v -0.470095 1.501744 0.003861
v -0.470095 0.001744 -0.046139
v -0.470095 1.501744 -0.046139
vt 0.375000 0.000000
vt 0.625000 0.000000
vt 0.375000 0.250000
vt 0.625000 0.250000
vt 0.375000 0.500000
vt 0.625000 0.500000
vt 0.375000 0.750000
vt 0.625000 0.750000
vt 0.375000 1.000000
vt 0.625000 1.000000
vt 0.875000 0.000000
vt 0.875000 0.250000
vt 0.125000 0.000000
vt 0.125000 0.250000
vn 1.000000 -0.000000 0.000000
vn 1.000000 -0.000000 0.000000
vn 1.000000 -0.000000 0.000000
vn 1.000000 -0.000000 0.000000
vn -0.000000 -0.000000 1.000000
vn -0.000000 -0.000000 1.000000
vn -0.000000 -0.000000 1.000000
vn -0.000000 -0.000000 1.000000
vn -1.000000 0.000000 -0.000000
vn -1.000000 0.000000 -0.000000
vn -1.000000 0.000000 -0.000000
vn -1.000000 0.000000 -0.000000
vn 0.000000 0.000000 -1.000000
vn 0.000000 0.000000 -1.000000
vn 0.000000 0.000000 -1.000000
vn 0.000000 0.000000 -1.000000
vn 0.000000 1.000000 0.000000
vn 0.000000 1.000000 0.000000
vn 0.000000 1.000000 0.000000
vn 0.000000 1.000000 0.000000
vn -0.000000 -1.000000 -0.000000
vn -0.000000 -1.000000 -0.000000
vn -0.000000 -1.000000 -0.000000
vn -0.000000 -1.000000 -0.000000
s off
g pCube67
usemtl initialShadingGroup
f 101/199/255 102/200/256 104/202/257 103/201/258
f 103/201/259 104/202/260 106/204/261 105/203/262
f 105/203/263 106/204/264 108/206/265 107/205/266
f 107/205/267 108/206/268 102/208/269 101/207/270
f 102/200/271 108/209/272 106/210/273 104/202/274
f 107/211/275 101/199/276 103/201/277 105/212/278
g default
v 0.994374 0.001744 0.004887
v 0.994374 1.501744 0.004887
v 0.944374 0.001744 0.004887
v 0.944374 1.501744 0.004887
v 0.944374 0.001744 -2.995113
v 0.944374 1.501744 -2.995113
v 0.994374 0.001744 -2.995113
v 0.994374 1.501744 -2.995113
vt 0.375000 0.000000
vt 0.625000 0.000000
vt 0.375000 0.250000
vt 0.625000 0.250000
vt 0.375000 0.500000
vt 0.625000 0.500000
vt 0.375000 0.750000
vt 0.625000 0.750000
vt 0.375000 1.000000
vt 0.625000 1.000000
vt 0.875000 0.000000
vt 0.875000 0.250000
vt 0.125000 0.000000
vt 0.125000 0.250000
vn 0.000000 0.000000 1.000000
vn 0.000000 0.000000 1.000000
vn 0.000000 0.000000 1.000000
vn 0.000000 0.000000 1.000000
vn -1.000000 0.000000 0.000000
vn -1.000000 0.000000 0.000000
vn -1.000000 0.000000 0.000000
vn -1.000000 0.000000 0.000000
vn 0.000000 0.000000 -1.000000
vn 0.000000 0.000000 -1.000000
vn 0.000000 0.000000 -1.000000
vn 0.000000 0.000000 -1.000000
vn 1.000000 -0.000000 0.000000
vn 1.000000 -0.000000 0.000000
vn 1.000000 -0.000000 0.000000
vn 1.000000 -0.000000 0.000000
vn 0.000000 1.000000 0.000000
vn 0.000000 1.000000 0.000000
vn 0.000000 1.000000 0.000000
vn 0.000000 1.000000 0.000000
vn -0.000000 -1.000000 0.000000
vn -0.000000 -1.000000 0.000000
vn -0.000000 -1.000000 0.000000
vn -0.000000 -1.000000 0.000000
s off
g pCube66
usemtl initialShadingGroup
f 109/213/279 110/214/280 112/216/281 111/215/282
f 111/215/283 112/216/284 114/218/285 113/217/286
f 113/217/287 114/218/288 116/220/289 115/219/290
f 115/219/291 116/220/292 110/222/293 109/221/294
f 110/214/295 116/223/296 114/224/297 112/216/298
f 115/225/299 109/213/300 111/215/301 113/226/302
